<svg width="17" height="15" viewBox="0 0 17 15" fill="none" xmlns="http://www.w3.org/2000/svg">
<path d="M13.387 14.9984C13.2677 14.9988 13.1513 14.9637 13.0544 14.898L8.49912 11.7765L3.94385 14.898C3.84653 14.9647 3.72929 15.0004 3.60906 15C3.48884 14.9996 3.37187 14.963 3.27507 14.8957C3.17826 14.8283 3.10664 14.7335 3.07055 14.6251C3.03446 14.5168 3.03578 14.4003 3.07431 14.2927L4.85094 9.31895L0.246445 6.33444C0.146709 6.26986 0.0714334 6.17683 0.0316176 6.06894C-0.00819815 5.96106 -0.0104677 5.84396 0.0251406 5.73476C0.0607489 5.62557 0.132369 5.53 0.229536 5.46201C0.326704 5.39403 0.444326 5.3572 0.565218 5.3569H6.24575L7.96004 0.370436C7.99697 0.262781 8.06902 0.168947 8.16587 0.102397C8.26272 0.0358464 8.37938 0 8.49912 0C8.61885 0 8.73551 0.0358464 8.83236 0.102397C8.92921 0.168947 9.00127 0.262781 9.0382 0.370436L10.7525 5.35857H16.433C16.5541 5.35851 16.6719 5.39509 16.7694 5.46294C16.8669 5.5308 16.9388 5.62636 16.9746 5.73564C17.0104 5.84492 17.0083 5.96217 16.9685 6.07022C16.9288 6.17828 16.8534 6.27146 16.7536 6.33611L12.1473 9.31895L13.9229 14.2913C13.9516 14.3719 13.9597 14.4577 13.9465 14.5417C13.9332 14.6258 13.899 14.7056 13.8466 14.7747C13.7943 14.8438 13.7253 14.9001 13.6454 14.939C13.5654 14.9779 13.4769 14.9982 13.387 14.9984Z" fill="#1883FF"/>
</svg>
