<svg width="17" height="15" viewBox="0 0 17 15" fill="none" xmlns="http://www.w3.org/2000/svg">
<path d="M13.3861 14.4984L13.3851 14.4984C13.3648 14.4985 13.3474 14.4924 13.3355 14.4845C13.3353 14.4844 13.3352 14.4843 13.335 14.4841L8.78175 11.3641L8.49912 11.1704L8.21649 11.3641L3.66122 14.4855L3.66114 14.4856C3.64921 14.4937 3.63155 14.5001 3.61078 14.5C3.59002 14.4999 3.57248 14.4935 3.56072 14.4853C3.54932 14.4774 3.54581 14.4698 3.54495 14.4672C3.54458 14.4661 3.54446 14.4653 3.54443 14.4647C3.54442 14.4646 3.54442 14.4644 3.54442 14.4643C3.54442 14.4637 3.54451 14.4627 3.54506 14.4612L3.54518 14.4609L5.3218 9.48714L5.45489 9.11456L5.12289 8.89938L0.5184 5.91487L0.518186 5.91473C0.505916 5.90678 0.501794 5.89881 0.500695 5.89584C0.50011 5.89425 0.500013 5.89324 0.500001 5.89265C0.49999 5.89207 0.500049 5.89117 0.500504 5.88978C0.501333 5.88724 0.504767 5.87968 0.516171 5.8717L0.230075 5.46278L0.516173 5.8717C0.527881 5.8635 0.54538 5.85702 0.566118 5.8569H6.24575H6.60258L6.71859 5.51945L8.43287 0.532993L8.43298 0.532673C8.43391 0.529982 8.43754 0.522384 8.44904 0.514482C8.46089 0.506341 8.47844 0.5 8.49912 0.5C8.51979 0.5 8.53734 0.506341 8.54919 0.514482C8.56069 0.522383 8.56432 0.529981 8.56525 0.532671L8.56534 0.532944L10.2796 5.52108L10.3956 5.85857H10.7525H16.433H16.4332C16.4542 5.85856 16.4719 5.86504 16.4837 5.87329C16.4952 5.88127 16.4986 5.88887 16.4995 5.89143C16.4999 5.89284 16.5 5.89374 16.5 5.89432C16.5 5.89465 16.5 5.89509 16.4998 5.8957C16.4997 5.89619 16.4996 5.89679 16.4993 5.8975C16.4982 5.90047 16.4941 5.90845 16.4818 5.9164L16.4818 5.91642L11.8755 8.89926L11.5433 9.11438L11.6764 9.48709L13.452 14.4595L13.452 14.4596C13.4528 14.4617 13.4527 14.4629 13.4526 14.4638C13.4524 14.4649 13.4517 14.468 13.4482 14.4727C13.4445 14.4775 13.4377 14.484 13.4266 14.4894C13.4154 14.4948 13.4014 14.4984 13.3861 14.4984Z" stroke="#1883FF"/>
</svg>
