<svg width="10" height="13" viewBox="0 0 10 13" fill="none" xmlns="http://www.w3.org/2000/svg">
<path d="M6.72656 2.8125C7.09952 2.8125 7.45721 2.66434 7.72093 2.40062C7.98465 2.1369 8.13281 1.77921 8.13281 1.40625C8.13281 1.03329 7.98465 0.675604 7.72093 0.411881C7.45721 0.148158 7.09952 0 6.72656 0C6.3536 0 5.99592 0.148158 5.73219 0.411881C5.46847 0.675604 5.32031 1.03329 5.32031 1.40625C5.32031 1.77921 5.46847 2.1369 5.73219 2.40062C5.99592 2.66434 6.3536 2.8125 6.72656 2.8125Z" fill="#8C8C8C"/>
<path d="M3.90082 4.15039C3.51113 4.24726 3.2452 4.39289 3.03051 4.57351C2.70863 4.84476 2.44863 5.23601 2.09738 5.85101C2.01513 5.99493 1.87906 6.10028 1.71913 6.14388C1.5592 6.18748 1.38849 6.16577 1.24457 6.08351C1.10065 6.00125 0.9953 5.86519 0.951698 5.70526C0.908095 5.54532 0.929812 5.37462 1.01207 5.2307C1.36176 4.61914 1.7152 4.04695 2.22551 3.61757C2.75801 3.16882 3.40988 2.91507 4.28895 2.81726C4.65645 2.77664 5.06082 2.78476 5.43988 2.95382C5.8377 3.13164 6.12832 3.45007 6.32645 3.8757C6.59332 4.44851 6.79176 4.78945 6.95051 4.98695C7.02707 5.08195 7.08051 5.12601 7.11082 5.1457C7.13488 5.16132 7.1452 5.16257 7.14895 5.1632H7.14926C7.17645 5.16632 7.26457 5.1632 7.52332 5.04851C7.63613 4.99851 7.75926 4.93851 7.90988 4.86507L7.94582 4.84757C8.13003 4.75667 8.3159 4.66915 8.50332 4.58507C8.65464 4.51864 8.8261 4.51485 8.98021 4.57451C9.13432 4.63417 9.25852 4.75244 9.32566 4.90345C9.39279 5.05445 9.39739 5.22589 9.33845 5.38028C9.27951 5.53466 9.16182 5.65942 9.01113 5.72726C8.83746 5.80521 8.66524 5.88637 8.49457 5.9707L8.45363 5.9907C8.30957 6.06101 8.16457 6.13195 8.02863 6.19195C7.74738 6.31632 7.38801 6.45132 6.99832 6.40413C6.58707 6.35413 6.2702 6.12195 6.00926 5.81038L5.1552 7.4582L6.33645 8.99507C6.40676 9.08695 6.4502 9.19632 6.46238 9.31132L6.72238 11.8101C6.73229 11.8924 6.72571 11.9759 6.70304 12.0556C6.68037 12.1354 6.64205 12.2098 6.59032 12.2746C6.53859 12.3395 6.47448 12.3933 6.40172 12.4331C6.32897 12.4729 6.24903 12.4978 6.16655 12.5064C6.08408 12.515 6.00072 12.507 5.92134 12.4831C5.84195 12.4591 5.76812 12.4196 5.70416 12.3669C5.64019 12.3141 5.58736 12.2491 5.54875 12.1758C5.51014 12.1024 5.48652 12.022 5.47926 11.9394L5.23738 9.61663L4.51988 8.68288L4.51363 8.69445L4.48738 8.6407L3.16176 6.9157C3.09659 6.83091 3.05427 6.73082 3.03884 6.62501C3.02341 6.51919 3.03539 6.41119 3.07363 6.31132L3.90082 4.15039Z" fill="#8C8C8C"/>
<path d="M3.24921 7.74023L2.49529 9.05308L0.682791 8.90933C0.600385 8.90168 0.517281 8.91047 0.438299 8.93519C0.359318 8.95991 0.286033 9.00008 0.222697 9.05335C0.159361 9.10662 0.107236 9.17194 0.069347 9.24552C0.0314577 9.31909 0.00855859 9.39946 0.00197859 9.48196C-0.0046014 9.56446 0.00526868 9.64744 0.0310162 9.72609C0.0567637 9.80475 0.0978757 9.8775 0.151967 9.94014C0.206057 10.0028 0.27205 10.054 0.346114 10.091C0.420178 10.1279 0.500839 10.1498 0.583416 10.1553L2.86717 10.3365C3.0027 10.3473 3.13806 10.3136 3.25271 10.2405C3.36736 10.1674 3.45505 10.0589 3.50248 9.93151L4.14796 8.90992L3.24921 7.74023Z" fill="#8C8C8C"/>
</svg>
