<svg width="25" height="25" viewBox="0 0 25 25" fill="none" xmlns="http://www.w3.org/2000/svg">
<path d="M18.75 8.33399C20.4759 8.33399 21.875 6.93488 21.875 5.20898C21.875 3.48309 20.4759 2.08398 18.75 2.08398C17.0241 2.08398 15.625 3.48309 15.625 5.20898C15.625 6.93488 17.0241 8.33399 18.75 8.33399Z" stroke="#1883FF" stroke-width="1.8" stroke-linecap="round" stroke-linejoin="round"/>
<path d="M6.25 15.625C7.97589 15.625 9.375 14.2259 9.375 12.5C9.375 10.7741 7.97589 9.375 6.25 9.375C4.52411 9.375 3.125 10.7741 3.125 12.5C3.125 14.2259 4.52411 15.625 6.25 15.625Z" stroke="#1883FF" stroke-width="1.8" stroke-linecap="round" stroke-linejoin="round"/>
<path d="M18.75 22.916C20.4759 22.916 21.875 21.5169 21.875 19.791C21.875 18.0651 20.4759 16.666 18.75 16.666C17.0241 16.666 15.625 18.0651 15.625 19.791C15.625 21.5169 17.0241 22.916 18.75 22.916Z" stroke="#1883FF" stroke-width="1.8" stroke-linecap="round" stroke-linejoin="round"/>
<path d="M8.948 14.0723L16.0626 18.2181" stroke="#1883FF" stroke-width="1.8" stroke-linecap="round" stroke-linejoin="round"/>
<path d="M16.0522 6.78125L8.948 10.9271" stroke="#1883FF" stroke-width="1.8" stroke-linecap="round" stroke-linejoin="round"/>
</svg>
