<svg width="95" height="95" viewBox="0 0 95 95" fill="none" xmlns="http://www.w3.org/2000/svg">
<path d="M47.5 0.209961C21.396 0.209961 0.210205 21.3958 0.210205 47.4998C0.210205 73.6038 21.396 94.7896 47.5 94.7896C73.604 94.7896 94.7899 73.6038 94.7899 47.4998C94.7899 21.3958 73.604 0.209961 47.5 0.209961ZM47.5 14.3969C55.3501 14.3969 61.687 20.7337 61.687 28.5839C61.687 36.434 55.3501 42.7708 47.5 42.7708C39.6499 42.7708 33.3131 36.434 33.3131 28.5839C33.3131 20.7337 39.6499 14.3969 47.5 14.3969ZM47.5 81.5485C41.8813 81.5485 36.35 80.158 31.3992 77.5011C26.4484 74.8442 22.232 71.0033 19.1261 66.3211C19.268 56.9105 38.0421 51.7559 47.5 51.7559C56.9107 51.7559 75.7321 56.9105 75.8739 66.3211C72.768 71.0033 68.5517 74.8442 63.6009 77.5011C58.6501 80.158 53.1187 81.5485 47.5 81.5485Z" fill="#D5E8FF"/>
</svg>
